<svg xmlns="http://www.w3.org/2000/svg" version="1.1" xmlns:xlink="http://www.w3.org/1999/xlink" width="512" height="512" x="0" y="0" viewBox="0 0 512 512" style="enable-background:new 0 0 512 512" xml:space="preserve" class=""><g><path d="M239.029 384.97a24 24 0 0 0 33.942 0l90.509-90.509a24 24 0 0 0 0-33.941 24 24 0 0 0-33.941 0L280 310.059V48a24 24 0 0 0-48 0v262.059l-49.539-49.539a24 24 0 0 0-33.941 0 24 24 0 0 0 0 33.941z" fill="#a8a64e" opacity="1" data-original="#000000"></path><path d="M464 232a24 24 0 0 0-24 24v184H72V256a24 24 0 0 0-48 0v192a40 40 0 0 0 40 40h384a40 40 0 0 0 40-40V256a24 24 0 0 0-24-24z" fill="#a8a64e" opacity="1" data-original="#000000"></path></g></svg>